<svg width="990" height="359" viewBox="0 0 990 359" fill="none" xmlns="http://www.w3.org/2000/svg">
<g clip-path="url(#clip0_22_32)">
<path d="M9.19951 141.82C20.6343 128.788 30.1163 110.751 91.0678 120.101C109.955 123.014 118.537 139.489 122.52 155.646C128.43 179.087 127.993 202.793 113.655 224.513C105.792 236.379 95.8216 243.822 81.997 244.775C60.6434 246.258 43.4526 249.808 21.6622 238.445C1.10518 227.611 1.41354 200.992 0.591257 198.714C0.591257 184.782 -3.34027 156.149 9.19951 141.82ZM31.3497 180.253C31.3497 184.914 31.0927 188.834 31.3497 192.702C31.7211 199.823 34.6547 206.545 39.5775 211.556C44.5003 216.566 51.0585 219.505 57.971 219.798C92.3269 222.023 96.8752 198.979 94.4083 171.724C93.2082 163.102 89.3211 155.117 83.3332 148.971C72.5922 138.085 59.0246 139.436 46.125 145.846C31.4525 153.13 30.733 166.85 31.3497 180.253Z" fill="#46D39A"/>
<path d="M557.557 145.051C555.553 121.796 555.296 119.65 578.397 117.717C604.093 115.571 632.745 114.538 649.19 126.193C656.899 132.443 657.105 139.727 658.492 152.68C660.574 182.054 659.263 215.507 659.263 245.861C648.985 247.132 639.194 245.861 628.428 245.861C628.428 230.181 628.89 215.878 628.119 201.654C627.939 198.105 623.982 191.854 621.618 191.801C609.438 191.483 597.207 192.596 585.027 193.496C575.108 194.264 573.977 201.442 574.748 209.388C575.519 217.334 580.89 219.824 588.213 219.586C595.536 219.348 603.502 219.586 612.136 219.586V242.736C605.661 244.775 571.253 252.668 553.754 233.624C541.497 220.381 541.086 204.912 547.33 189.364C553.112 174.982 565.086 168.042 580.17 167.459C591.682 167.009 603.297 167.671 614.732 167.221C619.074 167.036 623.34 168.307 627.58 167.221C625.704 161.394 625.19 151.17 621.567 146.879C618.56 143.33 611.854 141.423 606.868 141.582C590.706 142.138 574.44 143.859 557.557 145.051Z" fill="#46D39A"/>
<path d="M144.233 118.299H173.501L176.251 128.497C193.57 119.041 210.041 111.227 230.213 117.24C251.978 123.729 257.991 134.165 261.485 160.944C263.284 174.77 262.256 189.92 262.128 204.118C262.128 214.342 262.539 222.155 261.999 234.18C261.511 244.934 259.121 246.152 248.766 245.57C242.103 245.639 235.445 245.178 228.851 244.192C228.851 219.983 228.286 192.331 228.851 167.38C229.082 155.911 226.281 146.455 215.643 141.873C206.598 137.953 184.037 144.522 179.386 151.806C177.536 154.693 177.536 159.116 177.51 162.851C177.356 186.689 177.176 210.686 177.51 234.578C177.51 243.001 175.634 245.596 166.409 245.967C162.144 246.152 152.944 247.212 149.244 245.729C147.705 244.924 146.434 243.666 145.592 242.114C144.75 240.562 144.375 238.787 144.516 237.014C143.951 197.867 144.233 158.772 144.233 118.299Z" fill="#46D39A"/>
<path d="M381.461 232.459C357.769 250.788 333.101 248.828 308.997 241.967C290.599 236.67 280.141 218.447 279.986 198.264C279.986 189.152 280.192 180.014 279.986 170.903C278.625 126.034 318.685 106.142 355.611 118.352C374.754 124.683 387.5 145.051 387.654 165.897C387.654 175.405 387.654 184.914 387.654 195.695H312.21C310.591 210.951 317.349 220.01 330.043 219.533C338.497 219.189 346.848 216.46 355.302 215.216C357.32 215.283 359.257 216.048 360.801 217.387C367.302 221.864 373.649 226.711 381.461 232.459ZM314.471 170.267H357.152C348.647 142.509 342.968 137.449 326.856 141.449C317.683 143.727 312.672 154.666 314.471 170.293V170.267Z" fill="#46D39A"/>
<path d="M989.974 196.357H913.913C915.327 216.646 928.355 226.499 949.888 218.791C961.965 214.447 967.259 219.215 974.505 224.963C977.357 227.241 980.004 229.757 984.09 233.306C959.781 247.291 936.629 249.198 911.806 241.252C893.819 235.346 885.468 222.711 883.926 204.594C881.922 181.233 877.964 158.056 893.074 136.364C909.982 112.128 954.359 106.83 977.306 131.357C995.139 150.349 988.433 172.969 989.974 196.357ZM958.137 171.22C960.706 149.607 952.561 139.436 933.956 141.396C921.905 142.614 917.46 151.117 914.453 161.712C911.883 171.194 913.888 172.969 923.524 171.591C934.548 170.029 945.957 171.22 958.137 171.22Z" fill="#46D39A"/>
<path d="M861.75 244.404C861.75 244.404 837.262 251.079 829.527 234.922C813.75 246.973 795.891 246.868 778.366 245.517C761.997 244.192 747.325 224.539 746.657 203.137C745.834 175.405 746.451 147.515 746.451 118.962H779.856C779.856 145.078 779.856 171.035 779.856 196.966C779.856 216.116 783.865 219.93 803.163 219.877C823.463 219.877 831.069 213.308 831.069 195.88C831.069 170.346 831.069 144.813 831.069 118.67H861.904V244.59L861.75 244.404Z" fill="#46D39A"/>
<path d="M416.819 141.82L405.564 140.787C405.564 135.49 405.384 130.669 405.564 125.981C405.693 123.941 406.566 120.365 407.466 120.233C415.74 119.147 424.297 117.346 432.34 118.591C435.835 119.121 439.715 125.901 441.102 130.563C449.685 159.301 457.574 188.278 465.796 217.149C466.465 218.691 467.329 220.133 468.366 221.44C502.054 213.176 507.707 174.479 479.981 141.582L489.565 118.75C524.872 125.451 540.264 183.855 516.726 219.957C503.878 239.796 475.612 251.741 454.105 245.172C449.967 243.901 445.625 238.286 444.212 233.757C434.755 203.508 426.044 173.022 416.819 141.82Z" fill="#46D39A"/>
<path d="M713.097 72C713.097 115.28 713.508 157.474 712.84 199.641C712.635 212.752 715.41 220.831 730.417 219.745C730.648 223.903 731.033 227.294 731.008 230.71C730.879 245.358 727.744 243.557 713.791 243.954C711.997 243.875 710.211 243.662 708.446 243.318C681.876 240.034 679.821 237.703 679.795 210.607V72H713.097Z" fill="#46D39A"/>
</g>
<path d="M99.327 17.335V97H77.179V53.043L62.15 97H43.618L28.476 52.704V97H6.328V17.335H33.109L53.11 69.089L72.659 17.335H99.327ZM172.502 64.569C172.502 66.3017 172.389 68.0343 172.163 69.767H130.24C130.466 73.2323 131.408 75.8313 133.065 77.564C134.798 79.2213 136.983 80.05 139.619 80.05C143.311 80.05 145.947 78.3927 147.529 75.078H171.146C170.167 79.4473 168.246 83.3647 165.383 86.83C162.596 90.22 159.055 92.8943 154.761 94.853C150.467 96.8117 145.721 97.791 140.523 97.791C134.271 97.791 128.696 96.4727 123.799 93.836C118.978 91.1993 115.174 87.4327 112.386 82.536C109.674 77.6393 108.318 71.8763 108.318 65.247C108.318 58.6177 109.674 52.8923 112.386 48.071C115.098 43.1743 118.865 39.4077 123.686 36.771C128.583 34.1343 134.195 32.816 140.523 32.816C146.776 32.816 152.313 34.0967 157.134 36.658C161.956 39.2193 165.722 42.9107 168.434 47.732C171.146 52.478 172.502 58.0903 172.502 64.569ZM149.902 59.032C149.902 56.32 148.998 54.2107 147.19 52.704C145.382 51.122 143.122 50.331 140.41 50.331C137.698 50.331 135.476 51.0843 133.743 52.591C132.011 54.0223 130.881 56.1693 130.353 59.032H149.902ZM154.196 17.674L125.946 28.748V13.719L154.196 0.949997V17.674ZM218.969 78.129V97H209.364C193.168 97 185.069 88.977 185.069 72.931V52.026H177.272V33.607H185.069V18.239H207.33V33.607H218.856V52.026H207.33V73.27C207.33 75.0027 207.707 76.2457 208.46 76.999C209.289 77.7523 210.645 78.129 212.528 78.129H218.969ZM258.621 97.791C252.293 97.791 246.605 96.4727 241.558 93.836C236.586 91.1993 232.668 87.4327 229.806 82.536C226.943 77.6393 225.512 71.8763 225.512 65.247C225.512 58.693 226.943 52.9677 229.806 48.071C232.744 43.1743 236.699 39.4077 241.671 36.771C246.718 34.1343 252.406 32.816 258.734 32.816C265.062 32.816 270.712 34.1343 275.684 36.771C280.731 39.4077 284.686 43.1743 287.549 48.071C290.487 52.9677 291.956 58.693 291.956 65.247C291.956 71.801 290.487 77.564 287.549 82.536C284.686 87.4327 280.731 91.1993 275.684 93.836C270.636 96.4727 264.949 97.791 258.621 97.791ZM258.621 78.581C261.709 78.581 264.271 77.451 266.305 75.191C268.414 72.8557 269.469 69.541 269.469 65.247C269.469 60.953 268.414 57.676 266.305 55.416C264.271 53.156 261.747 52.026 258.734 52.026C255.72 52.026 253.197 53.156 251.163 55.416C249.129 57.676 248.112 60.953 248.112 65.247C248.112 69.6163 249.091 72.931 251.05 75.191C253.008 77.451 255.532 78.581 258.621 78.581ZM297.351 65.247C297.351 58.693 298.518 52.9677 300.854 48.071C303.264 43.1743 306.541 39.4077 310.685 36.771C314.828 34.1343 319.423 32.816 324.471 32.816C328.539 32.816 332.155 33.6823 335.319 35.415C338.558 37.0723 341.082 39.37 342.89 42.308V13.38H365.151V97H342.89V88.186C341.157 91.124 338.709 93.4593 335.545 95.192C332.381 96.9247 328.652 97.791 324.358 97.791C319.31 97.791 314.715 96.4727 310.572 93.836C306.504 91.1993 303.264 87.4327 300.854 82.536C298.518 77.564 297.351 71.801 297.351 65.247ZM343.003 65.247C343.003 61.179 341.873 57.9773 339.613 55.642C337.428 53.3067 334.716 52.139 331.477 52.139C328.162 52.139 325.412 53.3067 323.228 55.642C321.043 57.902 319.951 61.1037 319.951 65.247C319.951 69.315 321.043 72.5543 323.228 74.965C325.412 77.3003 328.162 78.468 331.477 78.468C334.716 78.468 337.428 77.3003 339.613 74.965C341.873 72.6297 343.003 69.3903 343.003 65.247ZM407.264 97.791C400.936 97.791 395.249 96.4727 390.201 93.836C385.229 91.1993 381.312 87.4327 378.449 82.536C375.587 77.6393 374.155 71.8763 374.155 65.247C374.155 58.693 375.587 52.9677 378.449 48.071C381.387 43.1743 385.342 39.4077 390.314 36.771C395.362 34.1343 401.049 32.816 407.377 32.816C413.705 32.816 419.355 34.1343 424.327 36.771C429.375 39.4077 433.33 43.1743 436.192 48.071C439.13 52.9677 440.599 58.693 440.599 65.247C440.599 71.801 439.13 77.564 436.192 82.536C433.33 87.4327 429.375 91.1993 424.327 93.836C419.28 96.4727 413.592 97.791 407.264 97.791ZM407.264 78.581C410.353 78.581 412.914 77.451 414.948 75.191C417.058 72.8557 418.112 69.541 418.112 65.247C418.112 60.953 417.058 57.676 414.948 55.416C412.914 53.156 410.391 52.026 407.377 52.026C404.364 52.026 401.84 53.156 399.806 55.416C397.772 57.676 396.755 60.953 396.755 65.247C396.755 69.6163 397.735 72.931 399.693 75.191C401.652 77.451 404.176 78.581 407.264 78.581Z" fill="white"/>
<path d="M21.952 318.624C25.872 318.624 29.064 317.336 31.528 314.76C34.0293 312.147 35.28 308.731 35.28 304.512C35.28 300.256 34.0293 296.84 31.528 294.264C29.064 291.688 25.872 290.4 21.952 290.4C18.032 290.4 14.8213 291.688 12.32 294.264C9.856 296.84 8.624 300.256 8.624 304.512C8.624 308.731 9.856 312.147 12.32 314.76C14.8213 317.336 18.032 318.624 21.952 318.624ZM21.952 324.392C16.3893 324.392 11.6853 322.525 7.84 318.792C3.99467 315.021 2.072 310.261 2.072 304.512C2.072 298.725 3.99467 293.965 7.84 290.232C11.6853 286.461 16.3893 284.576 21.952 284.576C27.552 284.576 32.256 286.461 36.064 290.232C39.9093 293.965 41.832 298.725 41.832 304.512C41.832 310.261 39.9093 315.021 36.064 318.792C32.256 322.525 27.552 324.392 21.952 324.392ZM112.999 289.784C111.095 289.784 109.546 290.269 108.351 291.24C107.156 292.211 106.559 293.629 106.559 295.496C106.559 297.325 107.268 298.725 108.687 299.696C110.106 300.667 111.823 301.376 113.839 301.824C115.855 302.272 117.871 302.795 119.887 303.392C121.903 303.952 123.62 305.016 125.039 306.584C126.458 308.152 127.167 310.373 127.167 313.248C127.167 316.123 125.954 318.699 123.527 320.976C121.1 323.253 117.852 324.392 113.783 324.392C109.714 324.392 106.41 323.44 103.871 321.536C101.332 319.632 100.063 317 100.063 313.64H106.895C107.044 315.357 107.679 316.72 108.799 317.728C109.919 318.736 111.562 319.24 113.727 319.24C115.892 319.24 117.591 318.68 118.823 317.56C120.092 316.44 120.727 315.115 120.727 313.584C120.727 312.053 120.335 310.859 119.551 310C118.804 309.141 117.815 308.507 116.583 308.096C115.388 307.648 114.063 307.256 112.607 306.92C111.151 306.584 109.676 306.192 108.183 305.744C106.727 305.296 105.383 304.717 104.151 304.008C102.956 303.299 101.967 302.272 101.183 300.928C100.436 299.547 100.063 297.867 100.063 295.888C100.063 292.491 101.276 289.765 103.703 287.712C106.167 285.621 109.34 284.576 113.223 284.576C117.143 284.576 120.26 285.472 122.575 287.264C124.927 289.056 126.234 291.651 126.495 295.048H119.439C119.29 293.555 118.655 292.304 117.535 291.296C116.415 290.288 114.903 289.784 112.999 289.784ZM174.204 285.024V290.008H159.084V301.824H172.524V306.752H159.084V319.016H174.204V324H152.7V285.024H174.204ZM217.427 324.336C212.126 324.336 207.553 322.469 203.707 318.736C199.862 315.003 197.939 310.261 197.939 304.512C197.939 298.725 199.862 293.965 203.707 290.232C207.553 286.461 212.257 284.576 217.819 284.576C221.963 284.576 225.641 285.603 228.851 287.656C232.099 289.672 234.451 292.547 235.907 296.28H228.235C226.145 292.36 222.673 290.4 217.819 290.4C213.899 290.4 210.689 291.688 208.187 294.264C205.723 296.84 204.491 300.256 204.491 304.512C204.491 308.731 205.723 312.128 208.187 314.704C210.689 317.28 213.787 318.568 217.483 318.568C221.179 318.568 224.11 317.597 226.275 315.656C228.478 313.677 229.803 311.008 230.251 307.648H215.635V302.664H237.083V307.648C236.486 312.315 234.395 316.272 230.811 319.52C227.227 322.731 222.766 324.336 217.427 324.336ZM267.764 308.208V324H261.38V285.08H274.82C279.225 285.08 282.622 286.181 285.012 288.384C287.401 290.549 288.596 293.312 288.596 296.672C288.596 299.285 287.793 301.637 286.188 303.728C284.62 305.819 282.193 307.181 278.908 307.816L289.212 324H281.428L271.684 308.208H267.764ZM267.764 290.064V303.224H274.82C277.246 303.224 279.057 302.645 280.252 301.488C281.446 300.331 282.044 298.725 282.044 296.672C282.044 294.581 281.446 292.957 280.252 291.8C279.057 290.643 277.246 290.064 274.82 290.064H267.764ZM336.267 285.024V290.008H321.147V301.824H334.587V306.752H321.147V319.016H336.267V324H314.763V285.024H336.267ZM368.514 319.128H374.842C379.359 319.128 382.831 317.84 385.258 315.264C387.722 312.688 388.954 309.16 388.954 304.68C388.954 300.163 387.722 296.635 385.258 294.096C382.831 291.52 379.359 290.232 374.842 290.232H368.514V319.128ZM374.842 285.08C381.114 285.08 386.116 286.853 389.85 290.4C393.62 293.909 395.506 298.669 395.506 304.68C395.506 310.653 393.62 315.376 389.85 318.848C386.116 322.283 381.114 324 374.842 324H362.13V285.08H374.842ZM437.585 318.624C441.505 318.624 444.697 317.336 447.161 314.76C449.662 312.147 450.913 308.731 450.913 304.512C450.913 300.256 449.662 296.84 447.161 294.264C444.697 291.688 441.505 290.4 437.585 290.4C433.665 290.4 430.454 291.688 427.953 294.264C425.489 296.84 424.257 300.256 424.257 304.512C424.257 308.731 425.489 312.147 427.953 314.76C430.454 317.336 433.665 318.624 437.585 318.624ZM437.585 324.392C432.022 324.392 427.318 322.525 423.473 318.792C419.627 315.021 417.705 310.261 417.705 304.512C417.705 298.725 419.627 293.965 423.473 290.232C427.318 286.461 432.022 284.576 437.585 284.576C443.185 284.576 447.889 286.461 451.697 290.232C455.542 293.965 457.465 298.725 457.465 304.512C457.465 310.261 455.542 315.021 451.697 318.792C447.889 322.525 443.185 324.392 437.585 324.392ZM522.92 319.128H529.248C533.765 319.128 537.237 317.84 539.664 315.264C542.128 312.688 543.36 309.16 543.36 304.68C543.36 300.163 542.128 296.635 539.664 294.096C537.237 291.52 533.765 290.232 529.248 290.232H522.92V319.128ZM529.248 285.08C535.52 285.08 540.523 286.853 544.256 290.4C548.027 293.909 549.912 298.669 549.912 304.68C549.912 310.653 548.027 315.376 544.256 318.848C540.523 322.283 535.52 324 529.248 324H516.536V285.08H529.248ZM591.991 318.624C595.911 318.624 599.103 317.336 601.567 314.76C604.068 312.147 605.319 308.731 605.319 304.512C605.319 300.256 604.068 296.84 601.567 294.264C599.103 291.688 595.911 290.4 591.991 290.4C588.071 290.4 584.86 291.688 582.359 294.264C579.895 296.84 578.663 300.256 578.663 304.512C578.663 308.731 579.895 312.147 582.359 314.76C584.86 317.336 588.071 318.624 591.991 318.624ZM591.991 324.392C586.428 324.392 581.724 322.525 577.879 318.792C574.034 315.021 572.111 310.261 572.111 304.512C572.111 298.725 574.034 293.965 577.879 290.232C581.724 286.461 586.428 284.576 591.991 284.576C597.591 284.576 602.295 286.461 606.103 290.232C609.948 293.965 611.871 298.725 611.871 304.512C611.871 310.261 609.948 315.021 606.103 318.792C602.295 322.525 597.591 324.392 591.991 324.392ZM684.382 285.08C688.788 285.08 692.185 286.181 694.574 288.384C696.964 290.549 698.158 293.275 698.158 296.56C698.158 299.808 697.02 302.571 694.742 304.848C692.502 307.088 689.049 308.208 684.382 308.208H677.326V324H670.942V285.08H684.382ZM677.326 303.224H684.382C686.809 303.224 688.62 302.645 689.814 301.488C691.009 300.331 691.606 298.725 691.606 296.672C691.606 294.581 691.009 292.957 689.814 291.8C688.62 290.643 686.809 290.064 684.382 290.064H677.326V303.224ZM739.999 318.624C743.919 318.624 747.111 317.336 749.575 314.76C752.076 312.147 753.327 308.731 753.327 304.512C753.327 300.256 752.076 296.84 749.575 294.264C747.111 291.688 743.919 290.4 739.999 290.4C736.079 290.4 732.868 291.688 730.367 294.264C727.903 296.84 726.671 300.256 726.671 304.512C726.671 308.731 727.903 312.147 730.367 314.76C732.868 317.336 736.079 318.624 739.999 318.624ZM739.999 324.392C734.436 324.392 729.732 322.525 725.887 318.792C722.042 315.021 720.119 310.261 720.119 304.512C720.119 298.725 722.042 293.965 725.887 290.232C729.732 286.461 734.436 284.576 739.999 284.576C745.599 284.576 750.303 286.461 754.111 290.232C757.956 293.965 759.879 298.725 759.879 304.512C759.879 310.261 757.956 315.021 754.111 318.792C750.303 322.525 745.599 324.392 739.999 324.392ZM784.105 309.776V285.08H790.489V309.776C790.489 312.725 791.254 314.947 792.785 316.44C794.353 317.933 796.518 318.68 799.281 318.68C802.081 318.68 804.246 317.933 805.777 316.44C807.345 314.947 808.129 312.725 808.129 309.776V285.08H814.513V309.776C814.513 314.48 813.038 318.101 810.089 320.64C807.177 323.141 803.537 324.392 799.169 324.392C794.838 324.392 791.236 323.141 788.361 320.64C785.524 318.139 784.105 314.517 784.105 309.776ZM854.265 285.08C858.67 285.08 862.068 286.181 864.457 288.384C866.846 290.549 868.041 293.275 868.041 296.56C868.041 299.808 866.902 302.571 864.625 304.848C862.385 307.088 858.932 308.208 854.265 308.208H847.209V324H840.825V285.08H854.265ZM847.209 303.224H854.265C856.692 303.224 858.502 302.645 859.697 301.488C860.892 300.331 861.489 298.725 861.489 296.672C861.489 294.581 860.892 292.957 859.697 291.8C858.502 290.643 856.692 290.064 854.265 290.064H847.209V303.224ZM918.394 324L915.594 316.048H899.298L896.498 324H889.834L903.778 285.024H911.17L925.114 324H918.394ZM901.034 311.064H913.858L907.474 292.752L901.034 311.064ZM955.561 308.208V324H949.177V285.08H962.617C967.022 285.08 970.419 286.181 972.809 288.384C975.198 290.549 976.393 293.312 976.393 296.672C976.393 299.285 975.59 301.637 973.985 303.728C972.417 305.819 969.99 307.181 966.705 307.816L977.009 324H969.225L959.481 308.208H955.561ZM955.561 290.064V303.224H962.617C965.043 303.224 966.854 302.645 968.049 301.488C969.243 300.331 969.841 298.725 969.841 296.672C969.841 294.581 969.243 292.957 968.049 291.8C966.854 290.643 965.043 290.064 962.617 290.064H955.561Z" fill="white"/>
<defs>
<clipPath id="clip0_22_32">
<rect width="990" height="175" fill="white" transform="translate(0 72)"/>
</clipPath>
</defs>
</svg>
