<svg width="67" height="65" viewBox="0 0 67 65" fill="none" xmlns="http://www.w3.org/2000/svg">
<path d="M4.1875 56.5307H67V60.5163H4.1875V56.5307ZM60.2701 22.6529C60.8651 22.6529 61.4356 22.4429 61.8563 22.0692C62.277 21.6954 62.5134 21.1886 62.5134 20.66V14.6816C62.5132 14.2721 62.371 13.8725 62.106 13.5373C61.8411 13.2021 61.4664 12.9476 61.0328 12.8084L36.3565 4.8371C35.8636 4.67881 35.3239 4.67881 34.831 4.8371L10.1547 12.8084C9.72112 12.9476 9.34638 13.2021 9.08146 13.5373C8.81654 13.8725 8.6743 14.2721 8.67411 14.6816V20.66C8.67411 21.1886 8.91045 21.6954 9.33116 22.0692C9.75186 22.4429 10.3224 22.6529 10.9174 22.6529H13.1607V48.5594H8.67411V52.5451H62.5134V48.5594H58.0268V22.6529H60.2701ZM13.1607 16.0766L35.5938 8.82273L58.0268 16.0766V18.6672H13.1607V16.0766ZM40.0804 48.5594H31.1071V22.6529H40.0804V48.5594ZM17.6473 22.6529H26.6205V48.5594H17.6473V22.6529ZM53.5402 48.5594H44.567V22.6529H53.5402V48.5594Z" fill="#46D39A"/>
</svg>
