<svg width="67" height="67" viewBox="0 0 67 67" fill="none" xmlns="http://www.w3.org/2000/svg">
<g clip-path="url(#clip0_146_141)">
<path d="M46.9 14.74C57.2609 14.74 65.66 11.7403 65.66 8.04003C65.66 4.33972 57.2609 1.34003 46.9 1.34003C36.5392 1.34003 28.14 4.33972 28.14 8.04003C28.14 11.7403 36.5392 14.74 46.9 14.74Z" stroke="#46D39A" stroke-width="2" stroke-miterlimit="10" stroke-linecap="round" stroke-linejoin="round"/>
<path d="M28.14 9.38C28.14 10.6021 28.14 16.1979 28.14 17.42C28.14 21.1197 36.5365 24.12 46.9 24.12C57.2636 24.12 65.66 21.1197 65.66 17.42C65.66 16.1979 65.66 10.6021 65.66 9.38" stroke="#46D39A" stroke-width="2" stroke-miterlimit="10" stroke-linecap="round" stroke-linejoin="round"/>
<path d="M38.257 32.7483C40.8432 33.228 43.7831 33.5 46.9 33.5C57.2635 33.5 65.66 30.4997 65.66 26.8C65.66 25.5779 65.66 19.9821 65.66 18.76" stroke="#46D39A" stroke-width="2" stroke-miterlimit="10" stroke-linecap="round" stroke-linejoin="round"/>
<path d="M28.14 18.76C28.14 19.9821 28.14 24.4818 28.14 24.4818" stroke="#46D39A" stroke-width="2" stroke-miterlimit="10" stroke-linecap="round" stroke-linejoin="round"/>
<path d="M38.8935 42.2408C41.3216 42.6509 44.0351 42.88 46.9 42.88C57.2636 42.88 65.66 39.8811 65.66 36.18C65.66 34.9579 65.66 29.3621 65.66 28.14" stroke="#46D39A" stroke-width="2" stroke-miterlimit="10" stroke-linecap="round" stroke-linejoin="round"/>
<path d="M38.7903 51.6034C41.2439 52.0242 43.9949 52.26 46.9 52.26C57.2636 52.26 65.66 49.2611 65.66 45.56C65.66 44.3379 65.66 38.7421 65.66 37.52" stroke="#46D39A" stroke-width="2" stroke-miterlimit="10" stroke-linecap="round" stroke-linejoin="round"/>
<path d="M20.1 37.52C30.4609 37.52 38.86 34.5203 38.86 30.82C38.86 27.1197 30.4609 24.12 20.1 24.12C9.73916 24.12 1.34003 27.1197 1.34003 30.82C1.34003 34.5203 9.73916 37.52 20.1 37.52Z" stroke="#46D39A" stroke-width="2" stroke-miterlimit="10" stroke-linecap="round" stroke-linejoin="round"/>
<path d="M1.34003 32.16C1.34003 33.3821 1.34003 38.9779 1.34003 40.2C1.34003 43.9011 9.73647 46.9 20.1 46.9C30.4636 46.9 38.86 43.9011 38.86 40.2C38.86 38.9779 38.86 33.3821 38.86 32.16" stroke="#46D39A" stroke-width="2" stroke-miterlimit="10" stroke-linecap="round" stroke-linejoin="round"/>
<path d="M1.34003 41.54C1.34003 42.7621 1.34003 48.3579 1.34003 49.58C1.34003 53.2811 9.73647 56.28 20.1 56.28C30.4636 56.28 38.86 53.2811 38.86 49.58C38.86 48.3579 38.86 42.7621 38.86 41.54" stroke="#46D39A" stroke-width="2" stroke-miterlimit="10" stroke-linecap="round" stroke-linejoin="round"/>
<path d="M1.34003 50.92C1.34003 52.1421 1.34003 57.7379 1.34003 58.96C1.34003 62.6611 9.73647 65.66 20.1 65.66C30.4636 65.66 38.86 62.6611 38.86 58.96C38.86 57.7379 38.86 52.1421 38.86 50.92" stroke="#46D39A" stroke-width="2" stroke-miterlimit="10" stroke-linecap="round" stroke-linejoin="round"/>
</g>
<defs>
<clipPath id="clip0_146_141">
<rect width="67" height="67" fill="white"/>
</clipPath>
</defs>
</svg>
