<svg width="67" height="57" viewBox="0 0 67 57" fill="none" xmlns="http://www.w3.org/2000/svg">
<g clip-path="url(#clip0_137_71)">
<path d="M52.2675 36.7883C51.1608 36.3097 50.0052 35.9534 48.8213 35.7257C48.0213 35.5387 47.2346 35.2988 46.4664 35.0077C46.0088 34.848 45.5955 34.5823 45.2602 34.2323C45.0026 33.9286 44.8693 33.5388 44.8868 33.141C44.8711 32.8527 44.9318 32.5654 45.063 32.3082C45.1941 32.0509 45.391 31.833 45.6335 31.6764C46.2572 31.3052 46.9762 31.1255 47.7012 31.1594C48.4073 31.1334 49.1056 31.313 49.7115 31.6764C49.9519 31.8125 50.1607 31.9981 50.3241 32.2208C50.4874 32.4436 50.6017 32.6985 50.6592 32.9687C50.7136 33.1043 50.8097 33.2191 50.9336 33.2965C51.0575 33.3739 51.2028 33.41 51.3485 33.3995H53.6172C53.6862 33.4037 53.7553 33.3932 53.8199 33.3687C53.8845 33.3442 53.9432 33.3063 53.9921 33.2574C54.0409 33.2085 54.0789 33.1498 54.1034 33.0852C54.1279 33.0206 54.1384 32.9515 54.1342 32.8825C54.0807 32.2356 53.8633 31.6129 53.5024 31.0733C53.0664 30.4083 52.4876 29.8491 51.808 29.4363C50.9944 28.941 50.0833 28.6275 49.1372 28.5174V26.823C49.1413 26.7465 49.1293 26.6699 49.1019 26.5984C49.0745 26.5268 49.0323 26.4618 48.9781 26.4076C48.924 26.3534 48.859 26.3113 48.7874 26.2839C48.7158 26.2565 48.6393 26.2445 48.5628 26.2486H47.0694C46.9219 26.243 46.778 26.2944 46.6674 26.3922C46.6088 26.4469 46.5629 26.5139 46.5332 26.5884C46.5034 26.6628 46.4904 26.7429 46.4951 26.823V28.4886C45.1204 28.5948 43.8188 29.1498 42.7904 30.0681C42.3551 30.4695 42.0098 30.9586 41.7771 31.5031C41.5445 32.0476 41.4298 32.6352 41.4406 33.2272C41.4043 33.8197 41.5045 34.4127 41.7335 34.9604C41.9625 35.5081 42.3143 35.9959 42.7617 36.3862C43.9898 37.2813 45.4029 37.8898 46.8971 38.1667C48.0267 38.4731 48.8883 38.7315 49.4818 38.9421C49.9703 39.094 50.4207 39.3486 50.8028 39.6888C50.946 39.8312 51.0581 40.0016 51.1323 40.1894C51.2064 40.3772 51.2409 40.5783 51.2336 40.7801C51.241 41.0919 51.1651 41.4 51.0136 41.6726C50.8622 41.9453 50.6407 42.1725 50.3721 42.3309C49.6117 42.7585 48.7443 42.958 47.8736 42.9053C47.0621 42.9479 46.2552 42.7587 45.5474 42.3596C45.0212 42.0488 44.6239 41.5597 44.4273 40.9811C44.3558 40.8481 44.2581 40.7308 44.1402 40.6365C43.9995 40.5958 43.8501 40.5958 43.7094 40.6365H41.5555C41.4869 40.6344 41.4185 40.6461 41.3544 40.6707C41.2903 40.6954 41.2317 40.7326 41.1822 40.7801C41.0905 40.8714 41.0389 40.9954 41.0386 41.1247C41.075 41.864 41.3134 42.5792 41.7278 43.1925C42.2034 43.8856 42.8452 44.4485 43.5945 44.8294C44.4881 45.2921 45.4638 45.575 46.4664 45.6622V47.3279C46.4617 47.408 46.4747 47.4881 46.5044 47.5625C46.5342 47.637 46.5801 47.7039 46.6387 47.7587C46.7493 47.8564 46.8932 47.9078 47.0407 47.9023H48.5341C48.6106 47.9064 48.6871 47.8944 48.7587 47.867C48.8303 47.8396 48.8952 47.7974 48.9494 47.7432C49.0036 47.6891 49.0458 47.6241 49.0732 47.5525C49.1006 47.481 49.1126 47.4044 49.1084 47.3279V45.6622C50.5866 45.5787 52.002 45.0367 53.1577 44.1114C53.6462 43.6959 54.0343 43.1751 54.2929 42.5882C54.5515 42.0014 54.674 41.3636 54.6511 40.7227C54.683 39.9049 54.4733 39.0958 54.048 38.3965C53.614 37.7066 52.9978 37.15 52.2675 36.7883Z" fill="#46D39A"/>
<path d="M47.8735 17.9203H40.5503V10.5396C40.5503 10.1588 40.3991 9.79359 40.1298 9.5243C39.8605 9.25501 39.4953 9.10373 39.1144 9.10373H37.3339V1.43592C37.3339 1.05509 37.1826 0.689858 36.9133 0.420571C36.644 0.151284 36.2788 0 35.898 0L1.43592 0C1.05509 0 0.689858 0.151284 0.420571 0.420571C0.151284 0.689858 0 1.05509 0 1.43592L0 10.2525C0 10.441 0.0371411 10.6278 0.109303 10.802C0.181464 10.9762 0.287234 11.1345 0.420571 11.2678C0.553908 11.4012 0.712203 11.5069 0.886416 11.5791C1.06063 11.6512 1.24735 11.6884 1.43592 11.6884H3.33133V19.3562C3.33133 19.737 3.48262 20.1023 3.7519 20.3715C4.02119 20.6408 4.38642 20.7921 4.76725 20.7921H6.20317V26.7655H1.89541C1.51458 26.7655 1.14935 26.9168 0.880065 27.1861C0.610778 27.4554 0.459494 27.8206 0.459494 28.2015V54.5649C0.459494 54.9458 0.610778 55.311 0.880065 55.5803C1.14935 55.8496 1.51458 56.0009 1.89541 56.0009H36.3575C36.7383 56.0009 37.1035 55.8496 37.3728 55.5803C37.6421 55.311 37.7934 54.9458 37.7934 54.5649V53.1003C40.3018 54.724 43.1558 55.7375 46.1265 56.0593C49.0972 56.3812 52.1019 56.0026 54.8999 54.9538C57.6979 53.905 60.2112 52.2152 62.2384 50.0199C64.2656 47.8247 65.7502 45.185 66.5733 42.3125C67.3963 39.44 67.5349 36.4146 66.9779 33.4789C66.4209 30.5432 65.1838 27.7788 63.3658 25.4074C61.5479 23.036 59.1996 21.1235 56.5092 19.8233C53.8188 18.5231 50.8612 17.8714 47.8735 17.9203ZM2.87184 2.87184H34.4621V8.81655H2.87184V2.87184ZM6.20317 11.9756H37.7934V17.9203H6.20317V11.9756ZM9.07501 20.7921H37.7934C35.3666 22.3012 33.3064 24.332 31.7625 26.7368H9.07501V20.7921ZM29.1779 44.3986H3.33133V38.4539H28.7184C28.8634 40.4985 29.3386 42.506 30.1256 44.3986H29.1779ZM3.33133 29.6087H30.2404C29.4437 31.4996 28.9587 33.5072 28.8045 35.5534H3.33133V29.6087ZM34.9215 53.2152H3.33133V47.2705H31.7338C32.5983 48.6297 33.6307 49.8744 34.8067 50.9751L34.9215 53.2152ZM47.9884 53.2152C45.1438 53.218 42.3487 52.4717 39.8842 51.0512C37.4196 49.6308 35.3727 47.5863 33.9492 45.1236C32.5256 42.6608 31.7758 39.8666 31.7751 37.022C31.7744 34.1775 32.5228 31.3829 33.9451 28.9194C34.0019 28.8385 34.0501 28.7519 34.0887 28.661C35.5486 26.2372 37.6179 24.2382 40.0906 22.8629C42.5633 21.4877 45.3531 20.7841 48.1822 20.8223C51.0114 20.8606 53.7812 21.6392 56.2158 23.0808C58.6505 24.5224 60.665 26.5766 62.0588 29.0389C63.4527 31.5011 64.1772 34.2856 64.1603 37.1149C64.1434 39.9443 63.3856 42.7199 61.9624 45.1653C60.5391 47.6107 58.5002 49.6407 56.0484 51.053C53.5967 52.4654 50.8178 53.2108 47.9884 53.2152Z" fill="#46D39A"/>
</g>
<defs>
<clipPath id="clip0_137_71">
<rect width="67" height="56.1732" fill="white"/>
</clipPath>
</defs>
</svg>
