<svg width="69" height="80" viewBox="0 0 69 80" fill="none" xmlns="http://www.w3.org/2000/svg">
<path d="M34.4631 49.0915H34.648C38.6096 49.1972 41.7789 52.4193 41.7789 56.3809C41.7789 59.7614 39.4812 62.5874 36.3647 63.4325V66.3905C36.3647 67.447 35.5196 68.2921 34.4631 68.2921C33.4067 68.2921 32.5616 67.447 32.5616 66.3905V63.4325C31.0097 63.0153 29.6385 62.0985 28.6599 60.8239C27.6813 59.5493 27.1497 57.9878 27.1474 56.3809C27.1474 55.3244 27.9925 54.4793 29.0489 54.4793C30.1054 54.4793 30.9505 55.3244 30.9505 56.3809C30.9505 58.3353 32.5087 59.8935 34.4367 59.8935C36.3647 59.8935 37.9494 58.3089 37.9494 56.3809C37.9494 54.4529 36.3647 52.8682 34.4367 52.8682H34.2519C32.3519 52.8167 30.5469 52.0264 29.2203 50.6653C27.8938 49.3042 27.1501 47.4795 27.1474 45.5789C27.1474 42.1983 29.4451 39.3724 32.5616 38.5272V35.5692C32.5616 34.5128 33.4067 33.6677 34.4631 33.6677C35.5196 33.6677 36.3647 34.5128 36.3647 35.5692V38.5272C39.4812 39.3724 41.7789 42.1983 41.7789 45.5789C41.7789 46.6353 40.9338 47.4805 39.8773 47.4805C38.8209 47.4805 37.9758 46.6353 37.9758 45.5789C37.9758 43.6509 36.3911 42.0663 34.4631 42.0663C32.5352 42.0663 30.9505 43.6509 30.9505 45.5789C30.9505 47.5069 32.5352 49.0915 34.4631 49.0915Z" fill="#46D39A"/>
<path d="M20.4443 11.4695L27.8024 20.0794L27.0074 20.9668C11.8635 24.3632 0.551785 37.8881 0.551785 54.0567C0.551785 68.271 12.088 79.8072 26.3022 79.8072H42.5976C56.8119 79.8072 68.3481 68.2736 68.3481 54.0594C68.3745 37.8881 57.0628 24.3632 41.9189 20.9668C41.9805 20.4087 41.8796 19.8447 41.6284 19.3425L47.8877 12.1773L48.2918 11.554C48.7636 10.5248 48.8843 9.36917 48.6353 8.26473C48.3863 7.16029 47.7814 6.16823 46.9135 5.44114C46.0457 4.71405 44.9631 4.29218 43.8321 4.24042C42.7011 4.18866 41.5844 4.50987 40.6538 5.15466L38.4274 2.51359C37.928 1.95469 37.3164 1.5073 36.6325 1.20058C35.9486 0.893853 35.2077 0.734682 34.4582 0.733436C33.7086 0.73219 32.9672 0.888898 32.2823 1.19334C31.5974 1.49779 30.9843 1.94315 30.483 2.50038L28.151 5.10448C27.2228 4.44628 26.1036 4.11226 24.9664 4.15409C23.8293 4.19591 22.7377 4.61125 21.8603 5.33586C20.983 6.06046 20.3688 7.05397 20.1129 8.16269C19.8569 9.27142 19.9734 10.4336 20.4443 11.4695ZM30.4778 15.1273L25.9985 9.95085C27.0391 10.4523 28.2166 10.5947 29.3468 10.3557C30.4769 10.1168 31.496 9.51002 32.2446 8.63031L34.3575 5.88888L36.7028 8.66728C37.434 9.51766 38.4204 10.109 39.5151 10.3531C40.6097 10.5973 41.7539 10.4812 42.7772 10.0222L38.3191 15.1273H30.4778ZM5.83393 54.0567C5.83393 38.242 18.6484 25.4275 34.4631 25.4275C50.2779 25.4275 63.0924 38.242 63.0659 54.0515V54.0567C63.0638 59.4846 60.9067 64.6896 57.0686 68.5277C53.2305 72.3658 48.0255 74.5229 42.5976 74.525H26.3022C20.8743 74.5229 15.6694 72.3658 11.8313 68.5277C7.99318 64.6896 5.83603 59.4846 5.83393 54.0567Z" fill="#46D39A"/>
</svg>
