<svg width="67" height="94" viewBox="0 0 67 94" fill="none" xmlns="http://www.w3.org/2000/svg">
<path fill-rule="evenodd" clip-rule="evenodd" d="M65.6041 78.3413C65.6041 83.7159 62.4803 88.0709 58.625 88.0709H8.375C4.51971 88.0709 1.39583 83.7159 1.39583 78.3413V21.9092C1.39583 17.6106 3.89577 14.1254 6.97917 14.1254H35.1345L46.4394 8.41605C47.1554 8.05216 47.9483 8.56784 48.2093 9.56221L49.3999 14.1254H54.4375C57.5209 14.1254 60.0208 17.6106 60.0208 21.9092V25.801C63.1042 25.801 65.6041 29.2862 65.6041 33.5848V78.3413ZM6.97917 18.0173C5.43817 18.0173 4.1875 19.7609 4.1875 21.9092C4.1875 24.0575 5.43817 25.801 6.97917 25.801H11.7878H12.0516C12.0698 25.7913 12.0809 25.7699 12.0991 25.7602L27.4281 18.0173H6.97917ZM47.5672 18.3695L46.0848 12.6796H46.0834L43.2206 14.1254H43.2248L35.5281 18.0173H35.5142L20.1056 25.801H49.5046L47.5672 18.3695ZM57.2292 21.9092C57.2292 19.7609 55.9785 18.0173 54.4375 18.0173H50.4133L52.4428 25.801H57.2292V21.9092ZM60.0208 29.6929H6.97917C5.95742 29.6929 5.01104 29.2823 4.1875 28.6129V78.3413C4.1875 81.5657 6.0635 84.1791 8.375 84.1791H58.625C60.9379 84.1791 62.8125 81.5657 62.8125 78.3413V64.7197H57.2292C54.1458 64.7197 51.6458 61.2346 51.6458 56.936C51.6458 52.6374 54.1458 49.1523 57.2292 49.1523H62.8125V33.5848C62.8125 31.4365 61.5618 29.6929 60.0208 29.6929ZM62.8125 60.8279V53.0441H57.2292C55.6882 53.0441 54.4375 54.7877 54.4375 56.936C54.4375 59.0843 55.6882 60.8279 57.2292 60.8279H62.8125ZM57.2292 54.9901H60.0208V58.8819H57.2292V54.9901Z" fill="#46D39A"/>
</svg>
